<svg version="1" xmlns="http://www.w3.org/2000/svg" width="710.667" height="710.667" viewBox="0 0 533.000000 533.000000"><path d="M104.6 4c-9.2 1.5-17.1 8.2-19.5 16.7-1.5 5-2.2 97.4-1.2 145.8.9 43.5 1.1 46.6 3.4 57 12.6 55.6 48.5 100.7 99.7 125.4 21.6 10.4 39.3 15.1 64.8 17.2 66 5.3 127.9-25.3 165.9-82.1 11-16.4 21-39.9 25.2-59.1 4.1-19.3 4.5-28.4 4.5-116.9V23.5l-2.6-5c-1.5-2.8-4.1-6.4-6-8.2-5.9-5.7-9.3-6.5-27.8-6.6-18.8 0-21.6.8-28.3 8.2-7.8 8.6-7.1.1-7.8 100.6l-.5 90-2.6 8c-4.2 13-5.5 16.1-10 24.8-27.3 52.4-90 74.1-142.5 49.2-16.8-7.9-31.4-19.9-42.8-35-6.1-8.2-13.9-24.1-17-35-3.8-13.1-4.3-25.9-4.9-113.5-.4-51.9-.9-78.8-1.6-81.3-1.3-4.6-7.3-10.8-13.2-13.8-3.6-1.9-6.2-2.3-16.8-2.5-6.9-.2-15.2.1-18.4.6zM242.5 408.9c-2.2 1-5.2 3.1-6.7 4.7-5.8 6.2-5.8 6.4-5.8 54.1 0 40.5.2 44.1 1.9 47.8 1 2.2 3.1 5.2 4.7 6.7 5.6 5.2 8.6 5.8 29.4 5.8 20.8 0 23.8-.6 29.4-5.8 1.6-1.5 3.7-4.5 4.7-6.7 1.7-3.7 1.9-7.3 1.9-47.8 0-47.7 0-47.9-5.8-54.1-5.5-5.9-8.7-6.6-30.2-6.6-16.9 0-20 .3-23.5 1.9z"/></svg>