<?xml version="1.0" standalone="no"?>
<!DOCTYPE svg PUBLIC "-//W3C//DTD SVG 20010904//EN"
 "http://www.w3.org/TR/2001/REC-SVG-20010904/DTD/svg10.dtd">
<svg version="1.0" xmlns="http://www.w3.org/2000/svg"
 width="6250.000000pt" height="5563.000000pt" viewBox="0 0 6250.000000 5563.000000"
 preserveAspectRatio="xMidYMid meet">

<g transform="translate(0.000000,5563.000000) scale(0.100000,-0.100000)"
fill="#000000" stroke="none">
<path d="M8185 38963 c-109 -14 -260 -49 -347 -79 -610 -212 -1036 -752 -1098
-1393 -13 -133 -13 -9747 0 -10076 12 -301 24 -475 51 -740 223 -2204 1099
-4285 2520 -5991 428 -514 917 -1005 1424 -1429 1376 -1150 2989 -1946 4733
-2334 472 -105 1000 -185 1492 -225 594 -49 1266 -49 1860 0 2975 244 5725
1678 7649 3988 1400 1680 2273 3730 2510 5896 30 271 49 540 61 840 14 374 14
9931 -1 10071 -66 655 -499 1197 -1116 1398 -235 77 -222 76 -1093 76 -767 0
-776 0 -887 -23 -712 -144 -1237 -721 -1313 -1444 -6 -59 -10 -1855 -10 -4918
0 -4856 -1 -4948 -36 -5295 -238 -2352 -1670 -4457 -3744 -5504 -1734 -876
-3785 -931 -5610 -151 -323 138 -759 375 -1060 575 -1583 1055 -2647 2717
-2934 4585 -30 194 -51 395 -66 608 -7 102 -10 1817 -10 5072 0 3371 -3 4950
-11 5021 -14 142 -34 234 -79 370 -182 548 -649 959 -1227 1081 -106 22 -119
23 -868 24 -418 1 -773 0 -790 -3z"/>
<path d="M34910 38964 c-319 -51 -526 -128 -739 -274 -409 -280 -660 -703
-710 -1199 -15 -140 -15 -9697 -1 -10071 58 -1531 403 -2966 1040 -4330 865
-1851 2260 -3465 3975 -4595 1256 -827 2665 -1393 4135 -1659 945 -171 1961
-220 2930 -140 2288 188 4454 1078 6225 2559 606 507 1198 1122 1673 1738 506
656 939 1364 1277 2086 641 1370 984 2795 1045 4336 13 329 13 9943 0 10076
-70 722 -599 1307 -1313 1451 -111 23 -120 23 -892 23 -772 0 -781 0 -892 -23
-620 -125 -1110 -587 -1269 -1195 -51 -196 -47 173 -54 -5212 -7 -5449 -2
-5030 -60 -5460 -254 -1871 -1228 -3546 -2715 -4668 -1605 -1211 -3641 -1615
-5620 -1115 -673 170 -1374 475 -1973 859 -1167 749 -2086 1860 -2608 3152
-241 596 -389 1205 -461 1902 -16 159 -18 492 -23 5250 -6 4595 -8 5087 -22
5155 -56 265 -130 448 -256 635 -243 361 -609 606 -1039 697 -106 22 -119 23
-868 24 -418 1 -771 0 -785 -2z"/>
</g>
</svg>
