<?xml version="1.0" standalone="no"?>
<!DOCTYPE svg PUBLIC "-//W3C//DTD SVG 20010904//EN"
 "http://www.w3.org/TR/2001/REC-SVG-20010904/DTD/svg10.dtd">
<svg version="1.0" xmlns="http://www.w3.org/2000/svg"
 width="6251.000000pt" height="5563.000000pt" viewBox="0 0 6251.000000 5563.000000"
 preserveAspectRatio="xMidYMid meet">

<g transform="translate(0.000000,5563.000000) scale(0.100000,-0.100000)"
fill="#000000" stroke="none">
<path d="M43860 48884 c-242 -39 -386 -82 -540 -159 -528 -264 -861 -756 -910
-1343 -13 -157 -13 -3967 0 -4124 19 -226 66 -394 170 -603 201 -406 568 -713
1002 -839 207 -60 204 -59 963 -64 482 -2 735 0 813 8 341 35 660 173 916 399
244 214 422 501 501 808 57 217 55 151 55 2351 0 1321 -4 2058 -10 2117 -74
639 -509 1178 -1111 1375 -235 76 -196 74 -1054 76 -423 1 -781 0 -795 -2z"/>
<path d="M8129 38955 c-358 -57 -652 -207 -910 -464 -239 -240 -383 -509 -451
-843 l-23 -113 0 -5120 c0 -5557 -3 -5205 50 -5725 140 -1359 505 -2624 1106
-3830 168 -337 269 -521 437 -800 860 -1428 2051 -2664 3452 -3582 1419 -931
3020 -1519 4710 -1732 508 -64 795 -81 1400 -81 514 0 644 6 1030 41 2269 206
4448 1123 6185 2603 451 384 968 905 1345 1356 1284 1536 2129 3383 2450 5355
50 309 76 528 122 1045 9 96 12 1467 15 5280 3 5130 3 5150 -17 5269 -38 223
-125 440 -258 641 -88 133 -300 347 -432 434 -181 121 -383 207 -594 254 -100
22 -108 22 -901 22 -799 0 -800 0 -905 -23 -436 -96 -798 -339 -1036 -697
-118 -178 -193 -354 -243 -575 l-26 -115 -6 -4985 c-4 -2742 -10 -5007 -13
-5035 -4 -27 -13 -122 -22 -210 -41 -447 -139 -935 -275 -1380 -602 -1960
-2016 -3554 -3850 -4338 -1331 -570 -2829 -678 -4265 -307 -1010 261 -1949
760 -2754 1463 -148 129 -478 459 -607 607 -787 901 -1316 1968 -1548 3121
-69 346 -109 689 -125 1069 -6 145 -10 2102 -10 5085 0 5250 3 4914 -51 5115
-76 285 -208 509 -429 731 -235 236 -490 376 -818 451 -95 21 -114 22 -872 24
-614 2 -793 0 -861 -11z"/>
<path d="M34849 38955 c-331 -53 -631 -198 -867 -420 -257 -242 -416 -524
-494 -881 l-22 -99 -4 -4975 c-3 -5163 -3 -5230 38 -5715 246 -2896 1603
-5561 3810 -7480 1754 -1525 3968 -2471 6275 -2679 393 -36 519 -41 1035 -41
605 0 879 16 1395 81 2074 259 4038 1102 5660 2430 538 441 1067 964 1514
1500 1467 1756 2354 3916 2546 6199 34 408 35 555 35 5590 0 4459 -2 5041 -15
5125 -109 677 -609 1202 -1289 1353 -100 22 -108 22 -901 22 -799 0 -800 0
-905 -23 -222 -49 -403 -125 -585 -246 -358 -239 -600 -601 -697 -1041 l-22
-100 -6 -4980 c-7 -5478 -1 -5028 -65 -5508 -237 -1775 -1160 -3417 -2550
-4533 -561 -451 -1224 -823 -1900 -1067 -1239 -446 -2604 -505 -3911 -167
-1010 261 -1950 760 -2754 1463 -148 129 -478 459 -607 607 -513 588 -915
1242 -1203 1960 -240 600 -403 1291 -450 1910 -6 80 -13 161 -17 180 -3 19 -9
2312 -12 5095 l-7 5060 -22 98 c-82 358 -252 647 -521 890 -198 178 -469 315
-749 379 -95 21 -114 22 -872 24 -614 2 -793 0 -861 -11z"/>
<path d="M17155 13873 c-154 -14 -370 -73 -523 -144 -433 -200 -776 -608 -893
-1063 -56 -215 -52 -76 -56 -2261 -3 -1382 -1 -2061 7 -2150 34 -418 183 -740
479 -1035 227 -227 465 -363 759 -434 183 -44 267 -48 1042 -44 707 4 727 5
825 27 330 74 607 223 835 451 131 131 221 257 305 425 72 145 113 262 147
422 l23 108 3 2080 c2 1809 0 2095 -13 2196 -97 751 -677 1324 -1435 1418 -78
10 -1402 13 -1505 4z"/>
</g>
</svg>
