<?xml version="1.0" standalone="no"?>
<!DOCTYPE svg PUBLIC "-//W3C//DTD SVG 20010904//EN"
 "http://www.w3.org/TR/2001/REC-SVG-20010904/DTD/svg10.dtd">
<svg version="1.0" xmlns="http://www.w3.org/2000/svg"
 width="6251.000000pt" height="5563.000000pt" viewBox="0 0 6251.000000 5563.000000"
 preserveAspectRatio="xMidYMid meet">

<g transform="translate(0.000000,5563.000000) scale(0.100000,-0.100000)"
fill="#000000" stroke="none">
<path d="M43893 48880 c-645 -56 -1200 -498 -1402 -1117 -82 -251 -76 -52 -76
-2453 l0 -2135 23 -105 c145 -661 606 -1128 1264 -1282 90 -21 114 -22 872
-25 741 -4 784 -3 896 16 318 54 617 204 851 428 236 226 394 508 471 841 l22
97 3 2135 c3 2089 3 2137 -16 2251 -106 624 -581 1145 -1185 1300 -198 51
-198 51 -936 54 -382 2 -736 -1 -787 -5z"/>
<path d="M8155 38959 c-174 -23 -400 -97 -560 -184 -201 -109 -425 -308 -557
-495 -130 -183 -232 -427 -274 -655 -18 -97 -19 -273 -19 -5200 0 -5318 -1
-5174 41 -5635 305 -3368 2140 -6424 4979 -8296 1565 -1031 3340 -1645 5200
-1798 631 -52 1407 -47 2030 14 2211 217 4299 1089 6020 2514 354 293 908 827
1199 1154 1208 1361 2048 2933 2494 4672 182 708 295 1463 332 2220 8 159 10
1695 8 5265 l-3 5040 -23 97 c-71 310 -210 570 -419 789 -240 250 -519 405
-863 481 -105 23 -106 23 -900 23 -790 0 -796 0 -897 -23 -662 -146 -1139
-624 -1285 -1288 l-22 -99 -7 -4985 c-3 -2742 -9 -5001 -12 -5020 -4 -19 -11
-96 -17 -170 -46 -559 -188 -1204 -385 -1750 -199 -548 -486 -1115 -803 -1580
-552 -812 -1251 -1485 -2063 -1988 -1350 -836 -2948 -1150 -4539 -891 -2551
414 -4661 2284 -5380 4769 -154 534 -236 1043 -260 1620 -6 145 -10 2096 -10
5087 0 4816 0 4852 -20 4969 -54 317 -203 610 -427 845 -238 248 -515 403
-858 480 -99 23 -111 23 -865 25 -421 1 -796 -2 -835 -7z"/>
<path d="M34875 38959 c-248 -32 -515 -138 -728 -290 -340 -241 -563 -586
-660 -1019 l-21 -95 -4 -4975 c-2 -3521 0 -5050 8 -5230 22 -504 65 -925 146
-1405 667 -3967 3462 -7293 7269 -8648 895 -318 1847 -523 2800 -601 650 -54
1444 -46 2080 20 2343 242 4518 1204 6287 2781 203 181 631 606 823 818 685
754 1256 1585 1709 2485 611 1212 992 2512 1131 3855 53 517 49 106 52 5690 3
5129 3 5150 -17 5269 -54 318 -205 617 -429 849 -241 249 -518 403 -861 479
-105 23 -106 23 -900 23 -790 0 -796 0 -897 -23 -151 -33 -273 -76 -408 -143
-162 -80 -287 -171 -425 -309 -63 -63 -145 -158 -182 -210 -124 -174 -220
-397 -270 -626 l-22 -99 -6 -4980 c-7 -5439 -2 -5024 -60 -5475 -68 -519 -198
-1049 -377 -1530 -432 -1160 -1146 -2178 -2069 -2948 -1491 -1244 -3393 -1763
-5313 -1451 -2566 416 -4678 2299 -5390 4804 -120 420 -193 822 -238 1315 -16
171 -18 579 -23 5235 l-6 5050 -22 97 c-71 309 -213 575 -421 791 -239 248
-515 401 -856 478 -99 23 -111 23 -865 25 -421 1 -796 -2 -835 -7z"/>
<path d="M17045 13851 c-198 -36 -362 -94 -525 -186 -414 -233 -696 -622 -802
-1105 l-23 -105 0 -2135 c0 -2038 1 -2140 19 -2235 42 -228 144 -472 274 -655
85 -120 270 -306 387 -389 102 -72 312 -178 428 -216 103 -34 238 -62 366 -75
130 -13 1319 -13 1456 0 280 27 525 115 762 271 140 94 342 293 432 429 132
198 223 424 261 646 20 117 20 150 17 2254 l-3 2135 -22 93 c-155 657 -616
1117 -1269 1264 -96 22 -112 23 -878 25 -713 2 -789 0 -880 -16z"/>
</g>
</svg>
